<?xml version="1.0" encoding="UTF-8"?><svg xmlns="http://www.w3.org/2000/svg" xmlns:xlink="http://www.w3.org/1999/xlink" fill-opacity="1" color-rendering="auto" color-interpolation="auto" text-rendering="auto" stroke="black" stroke-linecap="square" width="1186" stroke-miterlimit="10" shape-rendering="auto" stroke-opacity="1" fill="black" stroke-dasharray="none" font-weight="normal" stroke-width="1" height="235" font-family="'Dialog'" font-style="normal" stroke-linejoin="miter" font-size="12px" stroke-dashoffset="0" image-rendering="auto">
  <!--Generated by ySVG 2.5-->
  <defs id="genericDefs"/>
  <g>
    <defs id="defs1">
      <linearGradient x1="100" gradientUnits="userSpaceOnUse" x2="375" y1="118" y2="160" id="linearGradient1" spreadMethod="reflect">
        <stop stop-opacity="1" stop-color="rgb(232,238,247)" offset="0%"/>
        <stop stop-opacity="1" stop-color="rgb(183,201,227)" offset="100%"/>
      </linearGradient>
      <linearGradient x1="426" gradientUnits="userSpaceOnUse" x2="923" y1="119" y2="160" id="linearGradient2" spreadMethod="reflect">
        <stop stop-opacity="1" stop-color="rgb(232,238,247)" offset="0%"/>
        <stop stop-opacity="1" stop-color="rgb(183,201,227)" offset="100%"/>
      </linearGradient>
      <linearGradient x1="954" gradientUnits="userSpaceOnUse" x2="1256" y1="115.5" y2="163.5" id="linearGradient3" spreadMethod="reflect">
        <stop stop-opacity="1" stop-color="rgb(232,238,247)" offset="0%"/>
        <stop stop-opacity="1" stop-color="rgb(183,201,227)" offset="100%"/>
      </linearGradient>
      <linearGradient x1="960" gradientUnits="userSpaceOnUse" x2="1235" y1="193.5" y2="235.5" id="linearGradient4" spreadMethod="reflect">
        <stop stop-opacity="1" stop-color="rgb(232,238,247)" offset="0%"/>
        <stop stop-opacity="1" stop-color="rgb(183,201,227)" offset="100%"/>
      </linearGradient>
      <linearGradient x1="960" gradientUnits="userSpaceOnUse" x2="1235" y1="265.5" y2="313.5" id="linearGradient5" spreadMethod="reflect">
        <stop stop-opacity="1" stop-color="rgb(232,238,247)" offset="0%"/>
        <stop stop-opacity="1" stop-color="rgb(183,201,227)" offset="100%"/>
      </linearGradient>
      <linearGradient x1="159" gradientUnits="userSpaceOnUse" x2="707" y1="185" y2="320" id="linearGradient6" spreadMethod="reflect">
        <stop stop-opacity="1" stop-color="rgb(232,238,247)" offset="0%"/>
        <stop stop-opacity="1" stop-color="rgb(183,201,227)" offset="100%"/>
      </linearGradient>
      <clipPath clipPathUnits="userSpaceOnUse" id="clipPath1">
        <path d="M0 0 L1186 0 L1186 235 L0 235 L0 0 Z"/>
      </clipPath>
      <clipPath clipPathUnits="userSpaceOnUse" id="clipPath2">
        <path d="M85 100 L1271 100 L1271 335 L85 335 L85 100 Z"/>
      </clipPath>
    </defs>
    <g fill="white" text-rendering="geometricPrecision" shape-rendering="geometricPrecision" transform="translate(-85,-100)" stroke="white">
      <rect x="85" width="1186" height="235" y="100" clip-path="url(#clipPath2)" stroke="none"/>
    </g>
    <g fill="url(#linearGradient1)" text-rendering="geometricPrecision" shape-rendering="geometricPrecision" transform="matrix(1,0,0,1,-85,-100)" stroke="url(#linearGradient1)">
      <rect x="100" y="118" clip-path="url(#clipPath2)" width="275" rx="21" ry="21" height="42" stroke="none"/>
    </g>
    <g text-rendering="geometricPrecision" stroke-miterlimit="1.45" shape-rendering="geometricPrecision" transform="matrix(1,0,0,1,-85,-100)" stroke-linecap="butt">
      <rect x="100" y="118" clip-path="url(#clipPath2)" fill="none" width="275" rx="21" ry="21" height="42"/>
      <text x="110.252" xml:space="preserve" y="143.7139" clip-path="url(#clipPath2)" font-family="sans-serif" stroke="none">Вставляем папку chart в папку public проекта </text>
    </g>
    <g fill="url(#linearGradient2)" text-rendering="geometricPrecision" shape-rendering="geometricPrecision" transform="matrix(1,0,0,1,-85,-100)" stroke="url(#linearGradient2)">
      <rect x="426" y="119" clip-path="url(#clipPath2)" width="497" rx="20.5" ry="20.5" height="41" stroke="none"/>
    </g>
    <g text-rendering="geometricPrecision" stroke-miterlimit="1.45" shape-rendering="geometricPrecision" transform="matrix(1,0,0,1,-85,-100)" stroke-linecap="butt">
      <rect x="426" y="119" clip-path="url(#clipPath2)" fill="none" width="497" rx="20.5" ry="20.5" height="41"/>
      <text x="440.0283" xml:space="preserve" y="144.2139" clip-path="url(#clipPath2)" font-family="sans-serif" stroke="none">На странице HTML загружаем скрипт с построителем графика ./chart/js/drawChart.js</text>
    </g>
    <g fill="url(#linearGradient3)" text-rendering="geometricPrecision" shape-rendering="geometricPrecision" transform="matrix(1,0,0,1,-85,-100)" stroke="url(#linearGradient3)">
      <rect x="954" y="115.5" clip-path="url(#clipPath2)" width="302" rx="24" ry="24" height="48" stroke="none"/>
    </g>
    <g text-rendering="geometricPrecision" stroke-miterlimit="1.45" shape-rendering="geometricPrecision" transform="matrix(1,0,0,1,-85,-100)" stroke-linecap="butt">
      <rect x="954" y="115.5" clip-path="url(#clipPath2)" fill="none" width="302" rx="24" ry="24" height="48"/>
      <text x="989.8457" xml:space="preserve" y="136.8633" clip-path="url(#clipPath2)" font-family="sans-serif" stroke="none">Настраиваем конфигурацию drawChart.js</text>
      <text x="968.0664" xml:space="preserve" y="151.5645" clip-path="url(#clipPath2)" font-family="sans-serif" stroke="none">Настройки описаны в начале файла drawChart.js</text>
    </g>
    <g fill="url(#linearGradient4)" text-rendering="geometricPrecision" shape-rendering="geometricPrecision" transform="matrix(1,0,0,1,-85,-100)" stroke="url(#linearGradient4)">
      <rect x="960" y="193.5" clip-path="url(#clipPath2)" width="275" rx="21" ry="21" height="42" stroke="none"/>
    </g>
    <g text-rendering="geometricPrecision" stroke-miterlimit="1.45" shape-rendering="geometricPrecision" transform="matrix(1,0,0,1,-85,-100)" stroke-linecap="butt">
      <rect x="960" y="193.5" clip-path="url(#clipPath2)" fill="none" width="275" rx="21" ry="21" height="42"/>
      <text x="1035.54" xml:space="preserve" y="219.2139" clip-path="url(#clipPath2)" font-family="sans-serif" stroke="none">Создаем объект Chart</text>
    </g>
    <g fill="url(#linearGradient5)" text-rendering="geometricPrecision" shape-rendering="geometricPrecision" transform="matrix(1,0,0,1,-85,-100)" stroke="url(#linearGradient5)">
      <rect x="960" y="265.5" clip-path="url(#clipPath2)" width="275" rx="24" ry="24" height="48" stroke="none"/>
    </g>
    <g text-rendering="geometricPrecision" stroke-miterlimit="1.45" shape-rendering="geometricPrecision" transform="matrix(1,0,0,1,-85,-100)" stroke-linecap="butt">
      <rect x="960" y="265.5" clip-path="url(#clipPath2)" fill="none" width="275" rx="24" ry="24" height="48"/>
      <text x="980.2539" xml:space="preserve" y="286.8633" clip-path="url(#clipPath2)" font-family="sans-serif" stroke="none">Периодически вызываем метод addData()</text>
      <text x="1027.4395" xml:space="preserve" y="301.5645" clip-path="url(#clipPath2)" font-family="sans-serif" stroke="none">для обновления графика</text>
    </g>
    <g fill="url(#linearGradient6)" text-rendering="geometricPrecision" shape-rendering="geometricPrecision" transform="matrix(1,0,0,1,-85,-100)" stroke="url(#linearGradient6)">
      <path d="M227.5 256.55 C159 218.75 227.5 185 339.84 209.3 C339.84 185 526.16 185 526.16 209.3 C638.5 185 707 218.75 638.5 248.45 C707 286.25 638.5 320 553.56 295.7 C526.16 320 339.84 320 367.24 295.7 C227.5 320 159 286.25 227.5 256.55 Z" stroke="none" clip-path="url(#clipPath2)"/>
    </g>
    <g text-rendering="geometricPrecision" stroke-miterlimit="1.45" shape-rendering="geometricPrecision" transform="matrix(1,0,0,1,-85,-100)" stroke-linecap="butt">
      <path fill="none" d="M227.5 256.55 C159 218.75 227.5 185 339.84 209.3 C339.84 185 526.16 185 526.16 209.3 C638.5 185 707 218.75 638.5 248.45 C707 286.25 638.5 320 553.56 295.7 C526.16 320 339.84 320 367.24 295.7 C227.5 320 159 286.25 227.5 256.55 Z" clip-path="url(#clipPath2)"/>
      <text x="335.8223" xml:space="preserve" y="235.1621" clip-path="url(#clipPath2)" font-family="sans-serif" stroke="none">В корне папки chart, расположены </text>
      <text x="297.4111" xml:space="preserve" y="249.8633" clip-path="url(#clipPath2)" font-family="sans-serif" stroke="none">тестовые HTML файлы, которые можно вызвать</text>
      <text x="280.9932" xml:space="preserve" y="264.5645" clip-path="url(#clipPath2)" font-family="sans-serif" stroke="none">по адресу //home/chart/*.html. В этих файлах показаны</text>
      <text x="352.8496" xml:space="preserve" y="279.2656" clip-path="url(#clipPath2)" font-family="sans-serif" stroke="none"> примеры работы с модулем</text>
    </g>
    <g text-rendering="geometricPrecision" stroke-miterlimit="1.45" shape-rendering="geometricPrecision" transform="matrix(1,0,0,1,-85,-100)" stroke-linecap="butt">
      <path fill="none" d="M374.9643 139 L418.0099 139" clip-path="url(#clipPath2)"/>
    </g>
    <g text-rendering="geometricPrecision" stroke-miterlimit="1.45" shape-rendering="geometricPrecision" transform="matrix(1,0,0,1,-85,-100)" stroke-linecap="butt">
      <path d="M426.0099 139 L414.0099 134 L417.0099 139 L414.0099 144 Z" stroke="none" clip-path="url(#clipPath2)"/>
      <path fill="none" d="M923.0041 139.5 L945.9916 139.5" clip-path="url(#clipPath2)"/>
      <path d="M953.9916 139.5 L941.9916 134.5 L944.9916 139.5 L941.9916 144.5 Z" clip-path="url(#clipPath2)" stroke="none"/>
      <path fill="none" d="M1105 163.4868 L1105 185.5268" clip-path="url(#clipPath2)"/>
      <path d="M1105 193.5268 L1110 181.5268 L1105 184.5268 L1100 181.5268 Z" clip-path="url(#clipPath2)" stroke="none"/>
      <path fill="none" d="M1097.5 235.4839 L1097.5 257.5251" clip-path="url(#clipPath2)"/>
      <path d="M1097.5 265.5251 L1102.5 253.5251 L1097.5 256.5251 L1092.5 253.5251 Z" clip-path="url(#clipPath2)" stroke="none"/>
    </g>
  </g>
</svg>
